<svg width="62" height="62" viewBox="0 0 62 62" fill="none" xmlns="http://www.w3.org/2000/svg">
<g filter="url(#filter0_d_318_262)">
<g clip-path="url(#clip0_318_262)">
<path d="M19.75 8.5H42.25C43.4435 8.5 44.5881 8.97411 45.432 9.81802C46.2759 10.6619 46.75 11.8065 46.75 13V49C46.75 50.1935 46.2759 51.3381 45.432 52.182C44.5881 53.0259 43.4435 53.5 42.25 53.5H19.75C18.5565 53.5 17.4119 53.0259 16.568 52.182C15.7241 51.3381 15.25 50.1935 15.25 49V13C15.25 11.8065 15.7241 10.6619 16.568 9.81802C17.4119 8.97411 18.5565 8.5 19.75 8.5ZM19.75 13V22H42.25V13H19.75ZM19.75 26.5V31H24.25V26.5H19.75ZM28.75 26.5V31H33.25V26.5H28.75ZM37.75 26.5V31H42.25V26.5H37.75ZM19.75 35.5V40H24.25V35.5H19.75ZM28.75 35.5V40H33.25V35.5H28.75ZM37.75 35.5V40H42.25V35.5H37.75ZM19.75 44.5V49H24.25V44.5H19.75ZM28.75 44.5V49H33.25V44.5H28.75ZM37.75 44.5V49H42.25V44.5H37.75Z" fill="white"/>
</g>
</g>
<defs>
<filter id="filter0_d_318_262" x="0" y="0" width="62" height="62" filterUnits="userSpaceOnUse" color-interpolation-filters="sRGB">
<feFlood flood-opacity="0" result="BackgroundImageFix"/>
<feColorMatrix in="SourceAlpha" type="matrix" values="0 0 0 0 0 0 0 0 0 0 0 0 0 0 0 0 0 0 127 0" result="hardAlpha"/>
<feOffset/>
<feGaussianBlur stdDeviation="2"/>
<feComposite in2="hardAlpha" operator="out"/>
<feColorMatrix type="matrix" values="0 0 0 0 0 0 0 0 0 0 0 0 0 0 0 0 0 0 0.25 0"/>
<feBlend mode="normal" in2="BackgroundImageFix" result="effect1_dropShadow_318_262"/>
<feBlend mode="normal" in="SourceGraphic" in2="effect1_dropShadow_318_262" result="shape"/>
</filter>
<clipPath id="clip0_318_262">
<rect x="4" y="4" width="54" height="54" rx="8" fill="white"/>
</clipPath>
</defs>
</svg>
