<svg width="62" height="62" viewBox="0 0 62 62" fill="none" xmlns="http://www.w3.org/2000/svg">
<g filter="url(#filter0_d_318_259)">
<g clip-path="url(#clip0_318_259)">
<path d="M13 13C13 11.8065 13.4741 10.6619 14.318 9.81802C15.1619 8.97411 16.3065 8.5 17.5 8.5H35.5C36.0967 8.50013 36.6689 8.73726 37.0907 9.15925L48.3408 20.4093C48.7627 20.8311 48.9999 21.4033 49 22V49C49 50.1935 48.5259 51.3381 47.682 52.182C46.8381 53.0259 45.6935 53.5 44.5 53.5H17.5C16.3065 53.5 15.1619 53.0259 14.318 52.182C13.4741 51.3381 13 50.1935 13 49V13ZM43.5685 22L35.5 13.9315V22H43.5685ZM31 13H17.5V49H44.5V26.5H33.25C32.6533 26.5 32.081 26.2629 31.659 25.841C31.2371 25.419 31 24.8467 31 24.25V13ZM22 33.25C22 32.6533 22.2371 32.081 22.659 31.659C23.081 31.2371 23.6533 31 24.25 31H37.75C38.3467 31 38.919 31.2371 39.341 31.659C39.7629 32.081 40 32.6533 40 33.25C40 33.8467 39.7629 34.419 39.341 34.841C38.919 35.2629 38.3467 35.5 37.75 35.5H24.25C23.6533 35.5 23.081 35.2629 22.659 34.841C22.2371 34.419 22 33.8467 22 33.25ZM22 42.25C22 41.6533 22.2371 41.081 22.659 40.659C23.081 40.2371 23.6533 40 24.25 40H37.75C38.3467 40 38.919 40.2371 39.341 40.659C39.7629 41.081 40 41.6533 40 42.25C40 42.8467 39.7629 43.419 39.341 43.841C38.919 44.2629 38.3467 44.5 37.75 44.5H24.25C23.6533 44.5 23.081 44.2629 22.659 43.841C22.2371 43.419 22 42.8467 22 42.25Z" fill="white"/>
</g>
</g>
<defs>
<filter id="filter0_d_318_259" x="0" y="0" width="62" height="62" filterUnits="userSpaceOnUse" color-interpolation-filters="sRGB">
<feFlood flood-opacity="0" result="BackgroundImageFix"/>
<feColorMatrix in="SourceAlpha" type="matrix" values="0 0 0 0 0 0 0 0 0 0 0 0 0 0 0 0 0 0 127 0" result="hardAlpha"/>
<feOffset/>
<feGaussianBlur stdDeviation="2"/>
<feComposite in2="hardAlpha" operator="out"/>
<feColorMatrix type="matrix" values="0 0 0 0 0 0 0 0 0 0 0 0 0 0 0 0 0 0 0.25 0"/>
<feBlend mode="normal" in2="BackgroundImageFix" result="effect1_dropShadow_318_259"/>
<feBlend mode="normal" in="SourceGraphic" in2="effect1_dropShadow_318_259" result="shape"/>
</filter>
<clipPath id="clip0_318_259">
<rect x="4" y="4" width="54" height="54" rx="8" fill="white"/>
</clipPath>
</defs>
</svg>
