<svg width="54" height="54" viewBox="0 0 54 54" fill="none" xmlns="http://www.w3.org/2000/svg">
<path d="M44.775 28.4851C44.4143 28.0745 44.2154 27.5467 44.2154 27.0001C44.2154 26.4536 44.4143 25.9257 44.775 25.5151L47.655 22.2751C47.9724 21.9211 48.1694 21.4757 48.2179 21.0028C48.2664 20.5298 48.1639 20.0537 47.925 19.6426L43.425 11.8576C43.1885 11.4471 42.8285 11.1216 42.3962 10.9277C41.9639 10.7337 41.4814 10.6812 41.0175 10.7776L36.7875 11.6326C36.2493 11.7438 35.6889 11.6542 35.2123 11.3806C34.7356 11.1071 34.3755 10.6685 34.2 10.1476L32.8275 6.03013C32.6766 5.58323 32.389 5.19508 32.0054 4.92052C31.6219 4.64597 31.1617 4.49891 30.69 4.50013H21.69C21.1994 4.47452 20.7138 4.61021 20.3075 4.88649C19.9012 5.16276 19.5966 5.56442 19.44 6.03013L18.18 10.1476C18.0045 10.6685 17.6444 11.1071 17.1678 11.3806C16.6911 11.6542 16.1307 11.7438 15.5925 11.6326L11.25 10.7776C10.8103 10.7155 10.3619 10.7849 9.96154 10.9771C9.56115 11.1693 9.22659 11.4756 9.00001 11.8576L4.50001 19.6426C4.25512 20.0491 4.14501 20.5226 4.18542 20.9954C4.22583 21.4682 4.4147 21.9161 4.72501 22.2751L7.58251 25.5151C7.94323 25.9257 8.14216 26.4536 8.14216 27.0001C8.14216 27.5467 7.94323 28.0745 7.58251 28.4851L4.72501 31.7251C4.4147 32.0841 4.22583 32.5321 4.18542 33.0049C4.14501 33.4777 4.25512 33.9512 4.50001 34.3576L9.00001 42.1426C9.23648 42.5532 9.59653 42.8787 10.0288 43.0726C10.4611 43.2665 10.9436 43.319 11.4075 43.2226L15.6375 42.3676C16.1757 42.2564 16.7361 42.3461 17.2128 42.6196C17.6894 42.8932 18.0495 43.3318 18.225 43.8526L19.5975 47.9701C19.7541 48.4358 20.0588 48.8375 20.465 49.1138C20.8713 49.39 21.3569 49.5257 21.8475 49.5001H30.8475C31.3192 49.5013 31.7794 49.3543 32.1629 49.0797C32.5465 48.8052 32.8341 48.417 32.985 47.9701L34.3575 43.8526C34.533 43.3318 34.8931 42.8932 35.3698 42.6196C35.8464 42.3461 36.4068 42.2564 36.945 42.3676L41.175 43.2226C41.6389 43.319 42.1214 43.2665 42.5537 43.0726C42.986 42.8787 43.346 42.5532 43.5825 42.1426L48.0825 34.3576C48.3214 33.9466 48.424 33.4704 48.3754 32.9975C48.3269 32.5245 48.1299 32.0791 47.8125 31.7251L44.775 28.4851ZM41.4225 31.5001L43.2225 33.5251L40.3425 38.5201L37.6875 37.9801C36.067 37.6489 34.3813 37.9241 32.9503 38.7537C31.5194 39.5832 30.4428 40.9093 29.925 42.4801L29.07 45.0001H23.31L22.5 42.4351C21.9822 40.8643 20.9056 39.5382 19.4747 38.7087C18.0437 37.8792 16.358 37.6039 14.7375 37.9351L12.0825 38.4751L9.15751 33.5026L10.9575 31.4776C12.0644 30.2401 12.6764 28.638 12.6764 26.9776C12.6764 25.3173 12.0644 23.7152 10.9575 22.4776L9.15751 20.4526L12.0375 15.5026L14.6925 16.0426C16.313 16.3739 17.9987 16.0986 19.4297 15.2691C20.8606 14.4395 21.9372 13.1135 22.455 11.5426L23.31 9.00013H29.07L29.925 11.5651C30.4428 13.136 31.5194 14.462 32.9503 15.2916C34.3813 16.1211 36.067 16.3964 37.6875 16.0651L40.3425 15.5251L43.2225 20.5201L41.4225 22.5451C40.328 23.7798 39.7237 25.3727 39.7237 27.0226C39.7237 28.6726 40.328 30.2654 41.4225 31.5001ZM26.19 18.0001C24.41 18.0001 22.6699 18.528 21.1899 19.5169C19.7098 20.5058 18.5563 21.9114 17.8751 23.556C17.1939 25.2005 17.0157 27.0101 17.3629 28.7559C17.7102 30.5018 18.5674 32.1054 19.826 33.3641C21.0847 34.6228 22.6884 35.4799 24.4342 35.8272C26.18 36.1745 27.9896 35.9962 29.6342 35.315C31.2787 34.6339 32.6843 33.4803 33.6732 32.0003C34.6622 30.5202 35.19 28.7802 35.19 27.0001C35.19 24.6132 34.2418 22.324 32.554 20.6362C30.8661 18.9483 28.577 18.0001 26.19 18.0001ZM26.19 31.5001C25.3 31.5001 24.43 31.2362 23.6899 30.7417C22.9499 30.2473 22.3731 29.5445 22.0326 28.7222C21.692 27.8999 21.6028 26.9951 21.7765 26.1222C21.9501 25.2493 22.3787 24.4475 23.008 23.8181C23.6374 23.1888 24.4392 22.7602 25.3121 22.5866C26.185 22.413 27.0898 22.5021 27.9121 22.8427C28.7344 23.1833 29.4372 23.76 29.9316 24.5001C30.4261 25.2401 30.69 26.1101 30.69 27.0001C30.69 28.1936 30.2159 29.3382 29.372 30.1821C28.5281 31.026 27.3835 31.5001 26.19 31.5001Z" fill="white"/>
</svg>
